<?xml version="1.0" standalone="no"?><!DOCTYPE svg PUBLIC "-//W3C//DTD SVG 1.1//EN" "http://www.w3.org/Graphics/SVG/1.1/DTD/svg11.dtd"><svg t="1692352421300" class="icon" viewBox="0 0 1024 1024" version="1.1" xmlns="http://www.w3.org/2000/svg" p-id="20067" xmlns:xlink="http://www.w3.org/1999/xlink" width="200" height="200"><path d="M895.104895 0 212.779221 0C142.193806 0 84.907093 57.286713 84.907093 127.872128L42.965035 127.872128c-23.528472 0-42.965035 19.436563-42.965035 42.965035l0 127.872128c0 23.528472 19.436563 42.965035 42.965035 42.965035l42.965035 0 0 63.424575L42.965035 405.098901c-23.528472 0-42.965035 19.436563-42.965035 42.965035l0 127.872128c0 23.528472 19.436563 42.965035 42.965035 42.965035l42.965035 0 0 63.424575L42.965035 682.325674c-23.528472 0-42.965035 19.436563-42.965035 42.965035l0 127.872128c0 23.528472 19.436563 42.965035 42.965035 42.965035l42.965035 0c0 70.585415 57.286713 127.872128 127.872128 127.872128l682.325674 0c70.585415 0 127.872128-57.286713 127.872128-127.872128l0-767.232767C1022.977023 57.286713 965.69031 0 895.104895 0zM843.956044 792.807193c0 14.321678-12.275724 26.597403-26.597403 26.597403-15.344655 0-26.597403-12.275724-26.597403-26.597403l-2.045954 0c-50.125874-79.792208-138.101898-134.00999-240.3996-134.00999-101.274725 0-190.273726 53.194805-240.3996 134.00999L306.893107 792.807193c0 14.321678-12.275724 26.597403-26.597403 26.597403-15.344655 0-26.597403-12.275724-26.597403-26.597403l-6.137862 0c37.85015-75.7003 102.297702-135.032967 182.08991-164.699301-73.654346-40.919081-122.757243-119.688312-122.757243-208.687313 0-132.987013 108.435564-240.3996 242.445554-240.3996 134.00999 0 242.445554 107.412587 242.445554 240.3996 0 90.021978-49.102897 167.768232-122.757243 208.687313 79.792208 29.666334 145.262737 90.021978 182.08991 164.699301L843.956044 792.807193zM360.087912 418.397602c0-103.320679 83.884116-187.204795 188.227772-187.204795 104.343656 0 188.227772 83.884116 188.227772 187.204795 0 103.320679-83.884116 187.204795-188.227772 187.204795C443.972028 605.602398 360.087912 521.718282 360.087912 418.397602L360.087912 418.397602z" fill="#00cfff" p-id="20068"></path></svg>