<?xml version="1.0" standalone="no"?><!DOCTYPE svg PUBLIC "-//W3C//DTD SVG 1.1//EN" "http://www.w3.org/Graphics/SVG/1.1/DTD/svg11.dtd"><svg t="1692352702603" class="icon" viewBox="0 0 1024 1024" version="1.1" xmlns="http://www.w3.org/2000/svg" p-id="29388" xmlns:xlink="http://www.w3.org/1999/xlink" width="200" height="200"><path d="M483.374545 417.047273L105.192727 247.389091a8.610909 8.610909 0 0 0-8.145454 0A9.774545 9.774545 0 0 0 93.090909 256v519.68a8.378182 8.378182 0 0 0 5.352727 8.145455L476.392727 954.181818a9.309091 9.309091 0 0 0 3.490909 0 6.749091 6.749091 0 0 0 4.654546-1.629091 8.378182 8.378182 0 0 0 3.956363-7.447272V425.192727a8.610909 8.610909 0 0 0-5.12-8.145454zM877.847273 205.265455a8.610909 8.610909 0 0 0-5.818182-8.145455L512 69.818182 152.203636 197.12a8.610909 8.610909 0 0 0-6.050909 7.68 9.541818 9.541818 0 0 0 5.12 9.076364l357.236364 160.116363 3.956364 1.396364 360.494545-161.512727a8.843636 8.843636 0 0 0 4.887273-8.610909zM926.952727 248.087273a8.610909 8.610909 0 0 0-8.145454 0l-378.414546 168.96a9.309091 9.309091 0 0 0-4.887272 8.145454v519.912728a8.843636 8.843636 0 0 0 3.956363 7.447272 6.283636 6.283636 0 0 0 4.654546 1.629091 9.309091 9.309091 0 0 0 3.490909 0l377.949091-169.658182a8.378182 8.378182 0 0 0 5.352727-8.145454V256a9.774545 9.774545 0 0 0-3.956364-7.912727z" fill="#00cfff" p-id="29389"></path></svg>