<?xml version="1.0" standalone="no"?><!DOCTYPE svg PUBLIC "-//W3C//DTD SVG 1.1//EN" "http://www.w3.org/Graphics/SVG/1.1/DTD/svg11.dtd"><svg t="1692352761237" class="icon" viewBox="0 0 1024 1024" version="1.1" xmlns="http://www.w3.org/2000/svg" p-id="29595" xmlns:xlink="http://www.w3.org/1999/xlink" width="200" height="200"><path d="M919.272727 212.014545L513.861818 69.818182H512L110.312727 209.454545l-6.283636 2.56a28.625455 28.625455 0 0 0-11.636364 23.272728v530.850909a7.912727 7.912727 0 0 0 4.654546 6.981818l385.861818 168.96 25.6 11.403636 3.490909 0.698182 414.254545-181.061818a7.68 7.68 0 0 0 4.654546-6.981818V235.054545a29.090909 29.090909 0 0 0-11.636364-23.04z m-52.363636 79.592728v436.130909l-323.025455 141.498182V433.105455zM814.545455 243.432727l-302.545455 132.189091-302.545455-132.189091L512 139.636364z m-334.661819 189.672728v436.130909L156.858182 727.738182V291.607273z" fill="#ffffff" p-id="29596"></path></svg>